<svg xmlns="http://www.w3.org/2000/svg" width="94" height="94"><g fill="#fff"><path d="M43.45 41.665c-.922 0-1.639.261-2.146.785-.508.524-.828 1.234-.961 2.131h6.201c-.066-.956-.385-1.68-.959-2.175-.574-.493-1.285-.741-2.135-.741z"/><path d="M89 0H5a5 5 0 00-5 5v84a5 5 0 005 5h84a5 5 0 005-5V5a5 5 0 00-5-5zM20.134 52.823H8.175V34.217h11.848v3.294h-8.047v3.952h8.146v3.231h-8.146v4.783h8.158v3.346zm8.513 6.96h-3.906l2.684-6.713-5.947-14.364h4l3.896 10.147 3.73-10.147h3.824l-5.564 14.03-2.717 7.047zm21.63-12.83h-10.02c.055 1.38.535 2.348 1.439 2.902.549.347 1.209.518 1.98.518.82 0 1.486-.21 2-.631.279-.227.523-.542.742-.946h3.672c-.098.815-.543 1.646-1.334 2.486-1.234 1.338-2.959 2.007-5.176 2.007-1.834 0-3.447-.564-4.848-1.693-1.398-1.128-2.1-2.964-2.1-5.507 0-2.383.631-4.212 1.895-5.483s2.904-1.908 4.922-1.908c1.197 0 2.275.215 3.234.646.961.429 1.752 1.108 2.377 2.035.562.818.93 1.766 1.098 2.844.099.632.136 1.542.119 2.73zm14.06 5.87H52.378V34.217h11.847v3.294h-8.048v3.952h8.146v3.231h-8.146v4.783h8.16v3.346zm21.461.152h-3.687v-8.762c0-.521-.082-.951-.252-1.288-.317-.639-.909-.959-1.768-.959-.992 0-1.678.413-2.059 1.238-.193.438-.289.962-.289 1.577v8.191H74.12v-8.191c0-.816-.084-1.41-.252-1.78-.303-.665-.896-.997-1.779-.997-1.027 0-1.717.332-2.07.997-.194.379-.289.943-.289 1.691v8.281h-3.647V39.24h3.496v2.007c.444-.715.866-1.224 1.262-1.527.699-.539 1.604-.809 2.714-.809 1.053 0 1.901.231 2.551.695.522.429.918.98 1.188 1.653.471-.808 1.055-1.401 1.754-1.78.742-.378 1.564-.568 2.475-.568.605 0 1.201.118 1.791.354.588.235 1.125.648 1.604 1.236.388.48.647 1.07.781 1.769.086.463.129 1.14.129 2.032l-.03 8.673z"/></g></svg>